<?xml version="1.0" encoding="UTF-8" ?>
<!DOCTYPE svg PUBLIC "-//W3C//DTD SVG 1.1//EN" "http://www.w3.org/Graphics/SVG/1.1/DTD/svg11.dtd">
<svg width="12pt" height="20pt" viewBox="0 0 12 20" version="1.1" xmlns="http://www.w3.org/2000/svg">
<g id="#d5d5d5ff">
<path fill="#d5d5d5" opacity="1.00" d=" M 0.00 0.00 L 12.00 0.00 L 12.00 8.01 C 10.68 8.00 9.37 8.00 8.05 7.99 C 8.02 6.66 7.98 5.34 7.95 4.01 C 5.30 4.00 2.65 3.99 0.00 4.00 L 0.00 0.00 Z" />
<path fill="#d5d5d5" opacity="1.00" d=" M 4.03 8.02 C 5.37 8.01 6.71 8.00 8.05 7.99 C 8.02 9.32 7.99 10.65 7.96 11.98 C 6.63 11.99 5.31 12.01 3.99 12.02 C 4.00 10.69 4.01 9.36 4.03 8.02 Z" />
<path fill="#d5d5d5" opacity="1.00" d=" M 0.00 11.99 C 1.33 12.00 2.66 12.01 3.99 12.02 C 4.00 14.68 4.00 17.34 4.00 20.00 L 0.00 20.00 L 0.00 11.99 Z" />
</g>
</svg>
