<?xml version="1.0" encoding="UTF-8" ?>
<!DOCTYPE svg PUBLIC "-//W3C//DTD SVG 1.1//EN" "http://www.w3.org/Graphics/SVG/1.1/DTD/svg11.dtd">
<svg width="12pt" height="20pt" viewBox="0 0 12 20" version="1.1" xmlns="http://www.w3.org/2000/svg">
<g id="#d5d5d5ff">
<path fill="#d5d5d5" opacity="1.00" d=" M 0.00 0.00 L 12.00 0.00 L 12.00 20.00 L 0.00 20.00 L 0.00 0.00 M 4.00 4.00 C 4.00 5.33 4.00 6.67 4.00 8.00 C 5.33 8.00 6.67 8.00 8.00 8.00 C 8.00 6.67 8.00 5.33 8.00 4.00 C 6.67 4.00 5.33 4.00 4.00 4.00 M 4.00 12.00 C 4.00 13.33 4.00 14.67 4.00 16.00 C 5.33 16.00 6.67 16.00 8.00 16.00 C 8.00 14.67 8.00 13.33 8.00 12.00 C 6.67 12.00 5.33 12.00 4.00 12.00 Z" />
</g>
</svg>
