<?xml version="1.0" encoding="UTF-8" ?>
<!DOCTYPE svg PUBLIC "-//W3C//DTD SVG 1.1//EN" "http://www.w3.org/Graphics/SVG/1.1/DTD/svg11.dtd">
<svg width="12pt" height="16pt" viewBox="0 0 12 16" version="1.1" xmlns="http://www.w3.org/2000/svg">
<g id="#d5d5d5ff">
<path fill="#d5d5d5" opacity="1.00" d=" M 0.00 1.00 C 1.74 1.01 5.23 1.05 6.98 1.06 C 7.01 3.70 7.06 6.34 7.12 8.98 C 5.11 9.77 3.05 10.39 1.03 11.13 C 1.09 10.45 1.21 9.09 1.28 8.41 C 2.53 7.89 3.78 7.38 5.03 6.86 C 4.99 5.52 4.95 4.19 4.91 2.85 C 3.27 3.16 1.62 3.48 0.00 3.89 L 0.00 1.00 Z" />
<path fill="#d5d5d5" opacity="1.00" d=" M 1.17 12.17 L 2.00 11.83 L 2.83 12.17 L 3.17 13.00 L 2.83 13.83 L 2.00 14.17 L 1.17 13.83 L 0.83 13.00 L 1.17 12.17 Z" />
</g>
</svg>
