<?xml version="1.0" encoding="UTF-8" ?>
<!DOCTYPE svg PUBLIC "-//W3C//DTD SVG 1.1//EN" "http://www.w3.org/Graphics/SVG/1.1/DTD/svg11.dtd">
<svg width="12pt" height="16pt" viewBox="0 0 12 16" version="1.1" xmlns="http://www.w3.org/2000/svg">
<g id="#d5d5d5ff">
<path fill="#d5d5d5" opacity="1.00" d=" M 0.00 0.00 L 11.08 0.00 C 11.06 1.31 11.00 2.61 10.91 3.92 C 8.61 4.06 6.31 3.94 4.01 4.09 C 4.01 4.80 4.01 6.21 4.01 6.91 C 6.67 7.09 9.34 7.00 12.00 7.00 L 12.00 16.00 L 0.00 16.00 L 0.00 0.00 M 4.00 10.00 C 4.00 10.75 4.00 12.25 4.00 13.00 C 5.67 13.00 7.33 13.00 9.00 13.00 C 9.00 12.25 9.00 10.75 9.00 10.00 C 7.33 10.00 5.67 10.00 4.00 10.00 Z" />
</g>
</svg>
