<?xml version="1.0" encoding="UTF-8" ?>
<!DOCTYPE svg PUBLIC "-//W3C//DTD SVG 1.1//EN" "http://www.w3.org/Graphics/SVG/1.1/DTD/svg11.dtd">
<svg width="12pt" height="16pt" viewBox="0 0 12 16" version="1.1" xmlns="http://www.w3.org/2000/svg">
<g id="#d5d5d5ff">
<path fill="#d5d5d5" opacity="1.00" d=" M 0.00 0.00 L 9.63 0.00 C 10.22 0.61 11.40 1.82 11.99 2.43 C 12.72 4.88 11.19 6.33 9.53 7.58 C 12.22 8.63 12.24 11.09 11.99 13.59 C 11.36 14.19 10.10 15.40 9.47 16.00 L 0.00 16.00 L 0.00 0.00 M 3.44 2.01 C -1.28 4.62 5.93 7.39 7.49 6.34 C 10.09 2.80 6.25 1.27 3.44 2.01 M 2.00 10.42 C 2.00 10.96 2.00 12.04 2.00 12.58 C 3.14 13.95 4.66 14.49 6.56 14.18 C 8.66 13.44 8.66 9.56 6.56 8.82 C 4.66 8.51 3.14 9.04 2.00 10.42 Z" />
</g>
</svg>
