<?xml version="1.0" encoding="UTF-8" ?>
<!DOCTYPE svg PUBLIC "-//W3C//DTD SVG 1.1//EN" "http://www.w3.org/Graphics/SVG/1.1/DTD/svg11.dtd">
<svg width="12pt" height="16pt" viewBox="0 0 12 16" version="1.1" xmlns="http://www.w3.org/2000/svg">
<g id="#d5d5d5ff">
<path fill="#d5d5d5" opacity="1.00" d=" M 4.48 0.00 L 10.00 0.00 C 10.00 3.99 10.00 7.99 10.00 11.98 C 10.50 11.99 11.50 12.01 12.00 12.02 L 12.00 16.00 L 9.00 16.00 C 9.00 15.50 9.00 14.50 9.00 14.00 C 7.00 14.00 5.01 14.00 3.02 14.00 C 3.01 14.50 2.99 15.50 2.98 16.00 L 0.00 16.00 L 0.00 12.00 C 0.50 12.00 1.50 12.00 2.00 12.00 C 2.58 7.95 0.24 2.57 4.48 0.00 M 4.00 3.00 C 4.00 5.33 4.00 7.67 4.00 10.00 C 5.33 10.00 6.67 10.00 8.00 10.00 C 8.00 7.67 8.00 5.33 8.00 3.00 C 6.67 3.00 5.33 3.00 4.00 3.00 Z" />
</g>
</svg>
