<?xml version="1.0" encoding="UTF-8" ?>
<!DOCTYPE svg PUBLIC "-//W3C//DTD SVG 1.1//EN" "http://www.w3.org/Graphics/SVG/1.1/DTD/svg11.dtd">
<svg width="12pt" height="16pt" viewBox="0 0 12 16" version="1.1" xmlns="http://www.w3.org/2000/svg">
<g id="#d5d5d5ff">
<path fill="#d5d5d5" opacity="1.00" d=" M 0.00 0.00 L 3.93 0.00 C 4.01 1.54 4.10 3.08 4.20 4.62 C 5.84 3.15 7.36 1.54 8.94 0.00 L 12.00 0.00 L 12.00 1.35 C 9.60 3.25 7.44 5.43 5.43 7.73 C 6.24 7.82 7.86 7.98 8.67 8.07 C 9.79 9.24 10.93 10.40 12.00 11.62 L 12.00 16.00 L 8.01 16.00 C 8.00 14.67 8.00 13.33 7.99 12.00 C 6.67 12.00 5.34 12.00 4.02 12.00 C 4.00 13.33 3.99 14.67 3.98 16.00 L 0.00 16.00 L 0.00 0.00 Z" />
</g>
</svg>
