<?xml version="1.0" encoding="UTF-8" ?>
<!DOCTYPE svg PUBLIC "-//W3C//DTD SVG 1.1//EN" "http://www.w3.org/Graphics/SVG/1.1/DTD/svg11.dtd">
<svg width="12pt" height="16pt" viewBox="0 0 12 16" version="1.1" xmlns="http://www.w3.org/2000/svg">
<g id="#d5d5d5ff">
<path fill="#d5d5d5" opacity="1.00" d=" M 0.00 0.00 L 12.00 0.00 L 12.00 11.95 C 10.69 11.99 9.37 12.03 8.06 12.07 C 8.02 13.38 7.99 14.69 7.96 16.00 L 4.04 16.00 C 4.01 14.69 3.98 13.38 3.94 12.07 C 2.63 12.03 1.31 11.99 0.00 11.95 L 0.00 0.00 M 3.00 3.00 C 3.00 5.00 3.00 7.00 3.00 9.00 C 3.50 9.00 4.50 9.00 5.00 9.00 C 5.00 7.00 5.00 5.00 5.00 3.00 C 4.50 3.00 3.50 3.00 3.00 3.00 M 7.00 3.00 C 7.00 5.00 7.00 7.00 7.00 9.00 C 7.50 9.00 8.50 9.00 9.00 9.00 C 9.00 7.00 9.00 5.00 9.00 3.00 C 8.50 3.00 7.50 3.00 7.00 3.00 Z" />
</g>
</svg>
