<?xml version="1.0" encoding="UTF-8" ?>
<!DOCTYPE svg PUBLIC "-//W3C//DTD SVG 1.1//EN" "http://www.w3.org/Graphics/SVG/1.1/DTD/svg11.dtd">
<svg width="12pt" height="16pt" viewBox="0 0 12 16" version="1.1" xmlns="http://www.w3.org/2000/svg">
<g id="#d5d5d5ff">
<path fill="#d5d5d5" opacity="1.00" d=" M 2.10 0.46 C 3.61 1.89 4.87 3.55 6.00 5.30 C 7.13 3.55 8.39 1.89 9.90 0.46 C 9.39 2.97 8.52 5.41 8.15 7.96 C 8.72 10.49 11.04 12.24 11.12 14.95 C 10.64 14.92 9.67 14.87 9.18 14.85 C 8.82 12.90 7.57 11.41 6.46 9.84 C 5.44 10.71 4.43 11.59 3.40 12.45 C 3.26 13.06 2.99 14.29 2.85 14.90 C 2.36 14.91 1.36 14.92 0.86 14.92 C 0.98 12.24 3.28 10.48 3.85 7.96 C 3.48 5.41 2.62 2.97 2.10 0.46 Z" />
</g>
</svg>
