<?xml version="1.0" encoding="UTF-8" ?>
<!DOCTYPE svg PUBLIC "-//W3C//DTD SVG 1.1//EN" "http://www.w3.org/Graphics/SVG/1.1/DTD/svg11.dtd">
<svg width="12pt" height="16pt" viewBox="0 0 12 16" version="1.1" xmlns="http://www.w3.org/2000/svg">
<g id="#d5d5d5ff">
<path fill="#d5d5d5" opacity="1.00" d=" M 0.00 0.00 L 5.93 0.00 C 5.97 2.31 6.01 4.61 6.06 6.92 C 8.04 6.97 10.02 7.04 12.00 7.12 L 12.00 16.00 L 2.99 16.00 C 3.02 11.46 3.07 6.91 2.93 2.37 C 2.20 2.15 0.73 1.72 0.00 1.50 L 0.00 0.00 M 6.00 10.00 C 6.00 10.75 6.00 12.25 6.00 13.00 C 6.75 13.00 8.25 13.00 9.00 13.00 C 9.00 12.25 9.00 10.75 9.00 10.00 C 8.25 10.00 6.75 10.00 6.00 10.00 Z" />
</g>
</svg>
