<?xml version="1.0" encoding="UTF-8" ?>
<!DOCTYPE svg PUBLIC "-//W3C//DTD SVG 1.1//EN" "http://www.w3.org/Graphics/SVG/1.1/DTD/svg11.dtd">
<svg width="12pt" height="16pt" viewBox="0 0 12 16" version="1.1" xmlns="http://www.w3.org/2000/svg">
<g id="#d5d5d5ff">
<path fill="#d5d5d5" opacity="1.00" d=" M 1.83 0.00 L 6.29 0.00 C 8.98 0.69 10.55 2.79 12.00 5.00 L 12.00 11.18 C 10.49 13.28 8.89 15.28 6.28 16.00 L 1.97 16.00 L 1.73 15.28 L 0.90 14.88 L 0.00 15.14 L 0.00 10.44 C 1.48 11.19 2.86 12.12 4.31 12.93 C 5.98 13.43 7.49 12.27 8.96 11.67 C 8.98 11.05 9.00 9.80 9.02 9.18 C 7.35 9.02 5.67 8.99 4.00 8.84 C 4.00 8.42 4.00 7.58 4.00 7.16 C 5.67 7.01 7.34 6.98 9.01 6.82 C 9.00 6.20 8.98 4.95 8.97 4.33 C 7.28 3.45 5.46 2.68 3.52 3.01 C 3.27 3.67 2.79 5.00 2.55 5.66 C 1.91 5.87 0.64 6.29 0.00 6.50 L 0.00 1.92 C 1.22 1.86 1.83 1.22 1.83 0.00 Z" />
</g>
</svg>
