<?xml version="1.0" encoding="UTF-8" ?>
<!DOCTYPE svg PUBLIC "-//W3C//DTD SVG 1.1//EN" "http://www.w3.org/Graphics/SVG/1.1/DTD/svg11.dtd">
<svg width="12pt" height="16pt" viewBox="0 0 12 16" version="1.1" xmlns="http://www.w3.org/2000/svg">
<g id="#d5d5d5ff">
<path fill="#d5d5d5" opacity="1.00" d=" M 0.00 0.97 C 0.75 0.98 2.24 1.01 2.98 1.02 C 3.00 2.68 3.01 4.34 3.03 6.00 C 3.76 6.00 5.24 6.00 5.97 6.00 C 5.99 4.34 6.01 2.67 6.02 1.00 C 8.02 1.00 10.01 1.00 12.00 0.99 L 12.00 14.01 C 10.01 14.00 8.01 14.00 6.02 13.99 C 6.01 12.33 5.99 10.66 5.97 9.00 C 5.24 9.00 3.76 9.00 3.03 9.00 C 3.01 10.65 3.00 12.31 2.98 13.97 C 2.24 13.99 0.75 14.03 0.00 14.05 L 0.00 0.97 M 8.00 4.00 C 8.00 6.33 8.00 8.67 8.00 11.00 C 8.50 11.00 9.50 11.00 10.00 11.00 C 10.00 8.67 10.00 6.33 10.00 4.00 C 9.50 4.00 8.50 4.00 8.00 4.00 Z" />
</g>
</svg>
