<?xml version="1.0" encoding="UTF-8" ?>
<!DOCTYPE svg PUBLIC "-//W3C//DTD SVG 1.1//EN" "http://www.w3.org/Graphics/SVG/1.1/DTD/svg11.dtd">
<svg width="12pt" height="16pt" viewBox="0 0 12 16" version="1.1" xmlns="http://www.w3.org/2000/svg">
<g id="#d5d5d5ff">
<path fill="#d5d5d5" opacity="1.00" d=" M 2.00 0.00 L 11.00 0.00 C 11.00 5.00 11.00 10.00 11.00 15.00 C 10.25 15.00 8.75 15.00 8.00 15.00 C 8.00 13.50 8.00 10.50 8.00 9.00 C 6.67 9.00 5.33 9.00 4.00 9.00 C 4.00 10.50 4.00 13.50 4.00 15.00 C 2.67 15.00 1.33 15.00 0.00 15.00 L 0.00 12.86 L 0.99 13.14 L 1.00 8.01 L 2.00 7.99 C 2.00 7.49 2.00 6.51 2.00 6.01 L 1.00 5.99 C 1.00 4.66 1.00 3.34 1.00 2.01 L 2.00 1.99 C 2.00 1.49 2.00 0.50 2.00 0.00 M 4.00 2.00 C 4.00 3.33 4.00 4.67 4.00 6.00 C 5.33 6.00 6.67 6.00 8.00 6.00 C 8.00 4.67 8.00 3.33 8.00 2.00 C 6.67 2.00 5.33 2.00 4.00 2.00 Z" />
</g>
</svg>
